# xmcd
#
# Track frame offsets:
#	150
#	20474
#	35747
#	50785
#	72529
#	87045
#	105231
#	124691
#	175175
#	203007
#	222721
#	244865
#	274376
#	274751
#	275126
#	275501
#	275876
#	276251
#	291869
#
# Disc length: 4165 seconds
#
# Revision: 3
# Processed by: cddbd v1.5.1PL2 Copyright (c) Steve Scherf et al.
# Submitted via: CDmax 1.8
#
DISCID=40104313
DTITLE=Los Lonely Boys - Live at Blue Cat Blues
DYEAR=2005
DGENRE=Blues
TTITLE0=Heaven
TTITLE1=Friday Night
TTITLE2=Dime Mi Amour
TTITLE3=Baby You're Gonna See
TTITLE4=I Want You to Feel The Same Way I Do
TTITLE5=I'm The Man To Beat
TTITLE6=I Don't Wanna Lose Your Love
TTITLE7=Cottonfields and Crossroads
TTITLE8=Senorita
TTITLE9=I'm Gone
TTITLE10=My Sweet Sweet Kiss
TTITLE11=End of A New Beginning
TTITLE12=Space Filler
TTITLE13=Space Filler
TTITLE14=Space Filler
TTITLE15=Space Filler
TTITLE16=Space Filler
TTITLE17=Friday Night (Alt Version)
TTITLE18=I Don't Wanna Lose Your Love (Alt Version)
EXTD=
EXTT0=
EXTT1=
EXTT2=
EXTT3=
EXTT4=
EXTT5=
EXTT6=
EXTT7=
EXTT8=
EXTT9=
EXTT10=
EXTT11=
EXTT12=
EXTT13=
EXTT14=
EXTT15=
EXTT16=
EXTT17=
EXTT18=
PLAYORDER=
